<svg width="32" height="32" viewBox="0 0 32 32" fill="none" xmlns="http://www.w3.org/2000/svg">
<path d="M28.8946 21.446C28.0039 23.5523 26.6109 25.4083 24.8372 26.8518C23.0635 28.2953 20.9632 29.2824 18.72 29.7267C16.4767 30.171 14.1588 30.059 11.9688 29.4005C9.77878 28.742 7.78344 27.5571 6.15719 25.9493C4.53094 24.3415 3.3233 22.3598 2.63985 20.1775C1.9564 17.9952 1.81795 15.6787 2.2366 13.4305C2.65525 11.1823 3.61826 9.07087 5.04143 7.28083C6.4646 5.49079 8.3046 4.07663 10.4006 3.16199" stroke="#FFEAA7" stroke-width="3" stroke-linecap="round" stroke-linejoin="round"/>
<path d="M30.0006 16C30.0006 14.1615 29.6385 12.341 28.9349 10.6424C28.2313 8.94387 27.2001 7.40053 25.9001 6.1005C24.6001 4.80048 23.0567 3.76925 21.3581 3.06569C19.6596 2.36212 17.8391 2 16.0006 2V16H30.0006Z" stroke="#FFEAA7" stroke-width="3" stroke-linecap="round" stroke-linejoin="round"/>
</svg>
